<svg width="236" height="84" viewBox="0 0 236 84" fill="none" xmlns="http://www.w3.org/2000/svg">
<g clip-path="url(#clip0_4_2)">
<path d="M58.6837 63.78C57.0717 63.78 55.5377 63.338 54.0817 62.454C52.6257 61.518 51.5337 60.114 50.8057 58.242C50.5457 57.566 50.3637 56.864 50.2597 56.136C50.1557 55.356 50.1037 54.602 50.1037 53.874C50.1037 53.146 50.2337 52.782 50.4937 52.782C50.8057 52.782 50.9617 52.99 50.9617 53.406C50.9617 55.85 51.5597 57.696 52.7557 58.944C54.0037 60.192 55.5377 60.816 57.3577 60.816C59.1777 60.816 60.9197 60.296 62.5837 59.256C64.2997 58.216 65.8857 56.89 67.3417 55.278C69.7337 52.678 71.7617 50.052 73.4257 47.4C75.0897 44.696 76.5977 41.94 77.9497 39.132C79.3537 36.272 80.7577 33.308 82.1617 30.24C83.0457 28.368 84.1377 26.73 85.4377 25.326C86.7897 23.922 88.4017 22.96 90.2737 22.44L90.3517 22.362H86.0617C84.2417 22.362 82.3177 22.44 80.2897 22.596C78.2617 22.752 76.4157 23.09 74.7517 23.61C73.1397 24.13 71.9697 24.91 71.2417 25.95C70.7737 26.626 70.5397 27.406 70.5397 28.29C70.5397 29.174 70.7737 30.032 71.2417 30.864C71.7097 31.696 72.3077 32.294 73.0357 32.658C73.1397 32.762 73.1917 32.84 73.1917 32.892C73.1917 32.996 73.0617 33.126 72.8017 33.282C72.5937 33.386 72.3597 33.412 72.0997 33.36C71.6837 33.1 71.1637 32.684 70.5397 32.112C69.9157 31.488 69.3437 30.838 68.8237 30.162C68.3557 29.486 68.0437 28.914 67.8877 28.446C67.6797 27.822 67.5757 27.198 67.5757 26.574C67.5757 25.326 68.0177 24.312 68.9017 23.532C69.8377 22.752 71.0337 22.154 72.4897 21.738C73.9457 21.322 75.5057 21.036 77.1697 20.88C78.8857 20.672 80.5237 20.568 82.0837 20.568C83.6957 20.516 85.0737 20.49 86.2177 20.49H94.6417C94.7457 20.49 94.7977 20.516 94.7977 20.568C94.7977 20.724 94.6157 20.958 94.2517 21.27C93.9397 21.53 93.7317 21.66 93.6277 21.66C92.3277 21.92 91.3657 22.622 90.7417 23.766C90.1177 24.858 89.8317 26.626 89.8837 29.07C89.8837 29.07 89.8837 29.642 89.8837 30.786C89.9357 31.93 89.9877 33.412 90.0397 35.232C90.0917 37.052 90.1437 39.002 90.1957 41.082C90.2477 43.162 90.2997 45.164 90.3517 47.088C90.4037 49.012 90.4557 50.624 90.5077 51.924V52.392L117.574 23.844C119.29 22.024 120.98 20.49 122.644 19.242C124.36 17.942 126.128 17.37 127.948 17.526C128 17.526 128.026 17.552 128.026 17.604C128.078 17.604 128.104 17.604 128.104 17.604C128.104 17.76 128 17.942 127.792 18.15C127.584 18.358 127.35 18.488 127.09 18.54C125.738 18.488 124.516 19.008 123.424 20.1C122.332 21.192 121.318 22.492 120.382 24C119.914 24.78 119.212 26.028 118.276 27.744C117.34 29.408 116.274 31.384 115.078 33.672C113.934 35.96 112.764 38.378 111.568 40.926C110.372 43.474 109.254 45.97 108.214 48.414C107.226 50.858 106.42 53.094 105.796 55.122C105.172 57.098 104.86 58.71 104.86 59.958C104.86 61.414 105.354 62.142 106.342 62.142C106.758 62.142 107.2 62.038 107.668 61.83C108.344 61.57 109.098 61.18 109.93 60.66C110.762 60.14 111.516 59.542 112.192 58.866C113.544 57.566 114.74 56.24 115.78 54.888C116.82 53.484 117.444 52.678 117.652 52.47C117.808 52.262 117.938 52.158 118.042 52.158C118.25 52.158 118.354 52.314 118.354 52.626C118.354 52.938 118.25 53.224 118.042 53.484C117.626 54.004 116.924 54.914 115.936 56.214C114.948 57.462 113.778 58.736 112.426 60.036C111.126 61.336 109.722 62.324 108.214 63C107.746 63.208 107.252 63.364 106.732 63.468C106.212 63.624 105.692 63.702 105.172 63.702C104.028 63.702 102.988 63.364 102.052 62.688C101.168 61.96 100.726 60.764 100.726 59.1C100.726 57.488 101.09 55.668 101.818 53.64C102.598 51.56 103.456 49.558 104.392 47.634C105.38 45.658 106.186 43.994 106.81 42.642C107.486 41.238 108.344 39.444 109.384 37.26C110.424 35.076 111.62 32.866 112.972 30.63L90.5077 54.342C90.4557 54.758 90.2737 55.174 89.9617 55.59C89.6497 55.954 89.1557 56.266 88.4797 56.526C88.1157 56.682 87.6217 57.098 86.9977 57.774C86.3737 58.45 85.9577 58.918 85.7497 59.178C85.7497 59.23 85.6717 59.256 85.5157 59.256C85.3597 59.256 85.2037 59.204 85.0477 59.1C84.8917 58.996 84.8397 58.918 84.8917 58.866C86.2437 57.15 86.9457 54.784 86.9977 51.768L87.0757 49.896C87.1797 47.712 87.2577 45.424 87.3097 43.032C87.3617 40.588 87.3877 38.326 87.3877 36.246C87.4397 34.114 87.4657 32.398 87.4657 31.098C87.4657 29.746 87.4657 29.07 87.4657 29.07C87.4657 27.822 87.6477 26.73 88.0117 25.794C88.3757 24.858 88.8177 24.052 89.3377 23.376C88.4537 24.052 87.5957 24.858 86.7637 25.794C85.9317 26.73 85.2297 27.77 84.6577 28.914C83.8777 30.526 82.9937 32.606 82.0057 35.154C81.0177 37.702 79.8737 40.406 78.5737 43.266C77.3257 46.126 75.9217 48.934 74.3617 51.69C72.8537 54.394 71.1637 56.734 69.2917 58.71C67.9917 60.114 66.3277 61.31 64.2997 62.298C62.3237 63.286 60.4517 63.78 58.6837 63.78ZM133.258 33.204C132.53 33.204 132.01 32.97 131.698 32.502C131.49 32.242 131.386 31.904 131.386 31.488C131.386 30.656 131.776 29.98 132.556 29.46C133.128 29.148 133.648 28.992 134.116 28.992C134.896 28.992 135.442 29.226 135.754 29.694C135.962 29.954 136.066 30.292 136.066 30.708C136.066 31.54 135.65 32.216 134.818 32.736C134.35 33.048 133.83 33.204 133.258 33.204ZM119.686 63.234C119.166 63.234 118.724 63.13 118.36 62.922C118.048 62.714 117.892 62.324 117.892 61.752C117.892 61.024 118.074 60.166 118.438 59.178C118.854 58.19 119.296 57.202 119.764 56.214C120.284 55.226 120.674 54.42 120.934 53.796C121.298 53.068 121.74 52.132 122.26 50.988C122.832 49.792 123.352 48.674 123.82 47.634C124.34 46.542 124.704 45.788 124.912 45.372C124.184 46.152 123.3 47.14 122.26 48.336C121.272 49.48 120.336 50.598 119.452 51.69C118.568 52.782 117.892 53.64 117.424 54.264C117.268 54.472 117.138 54.576 117.034 54.576C116.93 54.576 116.878 54.446 116.878 54.186C116.878 53.77 117.008 53.38 117.268 53.016C118.256 51.768 119.348 50.364 120.544 48.804C121.792 47.244 122.91 45.814 123.898 44.514C124.886 43.162 125.51 42.278 125.77 41.862C126.342 41.758 127.174 41.602 128.266 41.394C129.41 41.186 130.19 40.9 130.606 40.536C130.762 40.38 130.918 40.302 131.074 40.302C131.178 40.302 131.23 40.406 131.23 40.614C131.282 40.77 131.23 40.952 131.074 41.16C130.762 41.524 130.216 42.408 129.436 43.812C128.656 45.216 127.824 46.776 126.94 48.492C126.108 50.156 125.328 51.664 124.6 53.016C123.872 54.42 123.248 55.772 122.728 57.072C122.208 58.372 121.948 59.308 121.948 59.88C121.948 60.608 122.312 60.972 123.04 60.972C123.716 60.972 124.574 60.556 125.614 59.724C126.706 58.892 127.798 57.904 128.89 56.76C129.982 55.564 130.944 54.472 131.776 53.484C132.036 53.172 132.348 52.808 132.712 52.392C133.128 51.924 133.388 51.638 133.492 51.534C133.596 51.638 133.648 51.82 133.648 52.08C133.596 52.444 133.466 52.808 133.258 53.172C133.05 53.484 132.842 53.77 132.634 54.03C131.542 55.382 130.346 56.786 129.046 58.242C127.746 59.646 126.316 60.842 124.756 61.83C123.196 62.766 121.506 63.234 119.686 63.234ZM135.16 63.234C134.64 63.234 134.198 63.13 133.834 62.922C133.47 62.714 133.288 62.324 133.288 61.752C133.288 61.024 133.47 60.166 133.834 59.178C134.25 58.19 134.692 57.202 135.16 56.214C135.628 55.226 136.018 54.42 136.33 53.796C136.59 53.328 136.928 52.6 137.344 51.612C137.812 50.572 138.28 49.506 138.748 48.414C139.268 47.27 139.684 46.308 139.996 45.528C140.36 44.748 140.542 44.358 140.542 44.358C140.074 44.878 139.45 45.606 138.67 46.542C137.942 47.478 137.136 48.466 136.252 49.506C135.42 50.494 134.64 51.43 133.912 52.314C133.236 53.198 132.742 53.848 132.43 54.264C132.274 54.472 132.144 54.576 132.04 54.576C131.936 54.576 131.884 54.446 131.884 54.186C131.884 53.77 132.014 53.38 132.274 53.016C132.898 52.236 133.652 51.3 134.536 50.208C135.42 49.064 136.304 47.92 137.188 46.776C138.124 45.632 138.93 44.618 139.606 43.734C139.19 43.734 138.644 43.76 137.968 43.812C137.344 43.864 136.772 43.942 136.252 44.046C135.732 44.098 135.446 44.124 135.394 44.124C135.134 44.124 135.16 43.916 135.472 43.5C135.784 43.084 136.2 42.668 136.72 42.252C137.24 41.836 137.63 41.628 137.89 41.628C137.942 41.628 138.358 41.654 139.138 41.706C139.918 41.706 140.49 41.706 140.854 41.706C141.894 40.302 142.908 38.69 143.896 36.87C144.936 35.05 145.95 33.048 146.938 30.864C147.354 30.812 148.056 30.526 149.044 30.006C150.084 29.434 150.89 28.862 151.462 28.29C151.722 28.03 151.93 27.9 152.086 27.9C152.398 27.9 152.398 28.108 152.086 28.524C151.722 28.94 151.098 29.824 150.214 31.176C149.33 32.476 148.342 34.062 147.25 35.934C146.158 37.754 145.118 39.678 144.13 41.706H150.448C151.02 41.706 151.306 41.784 151.306 41.94C151.306 42.148 150.916 42.356 150.136 42.564C149.252 42.824 148.316 42.98 147.328 43.032C146.392 43.084 145.508 43.188 144.676 43.344C143.896 43.5 143.324 43.838 142.96 44.358C142.648 44.722 142.206 45.502 141.634 46.698C141.062 47.894 140.438 49.272 139.762 50.832C139.138 52.34 138.592 53.874 138.124 55.434C137.656 56.942 137.37 58.216 137.266 59.256V59.568C137.266 59.984 137.396 60.322 137.656 60.582C137.916 60.842 138.176 60.972 138.436 60.972C139.112 60.972 139.97 60.556 141.01 59.724C142.102 58.892 143.22 57.904 144.364 56.76C145.508 55.564 146.496 54.472 147.328 53.484C147.692 53.068 148.004 52.678 148.264 52.314C148.576 51.95 148.758 51.716 148.81 51.612C148.914 51.82 148.966 51.976 148.966 52.08C148.966 52.392 148.862 52.73 148.654 53.094C148.498 53.458 148.316 53.77 148.108 54.03C147.12 55.33 145.924 56.708 144.52 58.164C143.116 59.568 141.608 60.764 139.996 61.752C138.436 62.74 136.824 63.234 135.16 63.234ZM150.779 63.624C148.855 63.624 147.503 63.26 146.723 62.532C145.943 61.804 145.553 60.868 145.553 59.724C145.553 58.216 146.047 56.552 147.035 54.732C148.023 52.86 148.959 51.3 149.843 50.052C150.727 48.856 151.715 47.738 152.807 46.698C153.951 45.606 155.173 44.67 156.473 43.89C157.305 43.37 158.423 42.824 159.827 42.252C161.283 41.628 162.505 41.316 163.493 41.316C164.689 41.316 165.521 41.602 165.989 42.174C166.457 42.694 166.691 43.344 166.691 44.124C166.691 44.748 166.587 45.398 166.379 46.074C166.171 46.698 165.937 47.296 165.677 47.868C165.521 48.18 165.287 48.414 164.975 48.57C164.663 48.674 164.507 48.622 164.507 48.414C164.507 48.154 164.533 47.92 164.585 47.712C164.637 47.504 164.663 47.27 164.663 47.01C164.663 46.022 164.429 45.06 163.961 44.124C163.545 43.136 162.895 42.642 162.011 42.642C161.075 42.642 160.061 42.98 158.969 43.656C157.877 44.28 157.123 44.826 156.707 45.294C155.355 46.698 154.029 48.44 152.729 50.52C151.481 52.6 150.571 54.576 149.999 56.448C149.635 57.54 149.453 58.476 149.453 59.256C149.453 60.14 149.687 60.764 150.155 61.128C150.623 61.492 151.195 61.674 151.871 61.674C152.391 61.674 152.937 61.596 153.509 61.44C154.133 61.284 154.783 61.102 155.459 60.894C157.019 60.374 158.579 59.568 160.139 58.476C161.751 57.332 163.207 56.136 164.507 54.888C165.807 53.588 166.795 52.47 167.471 51.534C167.575 51.638 167.627 51.794 167.627 52.002C167.627 52.262 167.523 52.574 167.315 52.938C167.107 53.25 166.951 53.51 166.847 53.718C165.755 55.174 164.325 56.682 162.557 58.242C160.789 59.75 158.865 61.024 156.785 62.064C154.757 63.104 152.755 63.624 150.779 63.624ZM177.633 63.468C176.853 63.468 176.151 63.312 175.527 63C174.955 62.688 174.669 62.116 174.669 61.284C174.669 60.816 174.773 60.296 174.981 59.724C175.449 58.528 176.073 57.072 176.853 55.356C177.685 53.64 178.517 51.976 179.349 50.364C180.181 48.7 180.831 47.348 181.299 46.308C181.611 45.684 181.767 45.242 181.767 44.982C181.767 44.514 181.507 44.41 180.987 44.67C180.467 44.93 179.895 45.294 179.271 45.762C178.647 46.23 178.179 46.594 177.867 46.854C176.515 48.102 175.085 49.584 173.577 51.3C172.121 52.964 170.769 54.732 169.521 56.604C168.325 58.424 167.389 60.244 166.713 62.064C166.661 62.376 166.323 62.636 165.699 62.844C165.075 63.052 164.503 63.156 163.983 63.156C163.151 63.156 162.839 62.896 163.047 62.376C164.243 59.672 165.465 56.682 166.713 53.406C168.013 50.13 169.469 46.776 171.081 43.344C172.277 40.744 173.603 38.066 175.059 35.31C176.567 32.554 178.231 29.928 180.051 27.432C181.871 24.884 183.873 22.648 186.057 20.724C187.981 19.06 190.087 17.708 192.375 16.668C194.715 15.576 197.237 15.03 199.941 15.03C201.137 15.03 202.177 15.29 203.061 15.81C203.945 16.278 204.439 17.136 204.543 18.384V19.086C204.543 19.814 204.465 20.542 204.309 21.27C204.257 21.478 204.049 21.582 203.685 21.582C203.529 21.582 203.477 21.556 203.529 21.504C203.737 20.152 203.373 19.19 202.437 18.618C201.553 18.046 200.409 17.76 199.005 17.76C196.457 17.76 194.117 18.228 191.985 19.164C189.853 20.1 187.877 21.348 186.057 22.908C183.249 25.352 180.805 28.472 178.725 32.268C176.645 36.064 174.851 39.938 173.343 43.89C172.615 45.814 171.887 47.738 171.159 49.662C170.483 51.586 169.833 53.38 169.209 55.044C171.549 51.924 173.785 49.246 175.917 47.01C178.101 44.774 179.999 43.188 181.611 42.252C182.911 41.524 184.081 41.16 185.121 41.16C186.109 41.16 186.603 41.576 186.603 42.408C186.603 43.136 186.239 44.072 185.511 45.216C185.147 45.788 184.575 46.75 183.795 48.102C183.067 49.454 182.287 50.936 181.455 52.548C180.675 54.108 179.999 55.564 179.427 56.916C178.855 58.268 178.569 59.256 178.569 59.88C178.569 60.712 178.933 61.128 179.661 61.128C180.077 61.128 180.545 60.998 181.065 60.738C181.637 60.478 182.053 60.244 182.313 60.036C183.717 58.996 185.095 57.722 186.447 56.214C187.799 54.706 188.943 53.38 189.879 52.236C189.931 52.184 189.957 52.262 189.957 52.47C189.957 52.678 189.905 52.99 189.801 53.406C189.749 53.77 189.593 54.082 189.333 54.342C188.761 55.122 188.163 55.876 187.539 56.604C186.967 57.28 186.395 57.956 185.823 58.632C184.835 59.776 183.639 60.868 182.235 61.908C180.883 62.948 179.349 63.468 177.633 63.468Z" fill="#E63946"/>
</g>
<defs>
<clipPath id="clip0_4_2">
<rect width="236" height="84" fill="white"/>
</clipPath>
</defs>
</svg>
